<svg xmlns="http://www.w3.org/2000/svg" viewBox="0 0 182.58 252.07"><defs><style>.cls-1{fill:#fff;}</style></defs><g id="Layer_2" data-name="Layer 2"><g id="Layer_1-2" data-name="Layer 1"><g id="Group_9655" data-name="Group 9655"><g id="Group_5" data-name="Group 5"><g id="Group_4" data-name="Group 4"><g id="Path_234" data-name="Path 234"><path class="cls-1" d="M91.29,0A91.4,91.4,0,0,0,0,91.29c0,62.47,81.69,154.17,85.17,158.05a8.24,8.24,0,0,0,11.62.62c.21-.2.42-.4.61-.62,3.48-3.87,85.18-95.58,85.18-158A91.4,91.4,0,0,0,91.29,0Zm0,162a70.75,70.75,0,1,1,70.74-70.74A70.74,70.74,0,0,1,91.34,162Z"/></g><g id="Group_3" data-name="Group 3"><g id="Path_235" data-name="Path 235"><path class="cls-1" d="M68.44,138.05V44.3H98.52q15.08,0,24,8.4a31.14,31.14,0,0,1,0,43.62q-8.94,8.45-23.92,8.44H86.81V138ZM86.81,87.58H98.58A15,15,0,0,0,109,84.15a14.12,14.12,0,0,0,0-19.25,15,15,0,0,0-10.4-3.4H86.81Z"/></g></g></g></g></g></g></g></svg>